HIERARCHY
ROOT Hips
{
 OFFSET 0.000000 0.000000 0.000000
 CHANNELS 6 Xposition Yposition Zposition Yrotation Xrotation Zrotation
 JOINT Chest
 {
  OFFSET 0.000000 9.588913 -0.003946
  CHANNELS 3 Yrotation Xrotation Zrotation
  JOINT Chest2
  {
   OFFSET 0.000000 9.541882 0.008053
   CHANNELS 3 Yrotation Xrotation Zrotation
   JOINT Chest3
   {
    OFFSET 0.000000 9.501360 0.000000
    CHANNELS 3 Yrotation Xrotation Zrotation
    JOINT Chest4
    {
     OFFSET 0.000000 9.491660 0.000000
     CHANNELS 3 Yrotation Xrotation Zrotation
     JOINT Neck
     {
      OFFSET 0.000000 14.331917 0.000000
      CHANNELS 3 Yrotation Xrotation Zrotation
      JOINT Head
      {
       OFFSET 0.000000 8.884799 0.017034
       CHANNELS 3 Yrotation Xrotation Zrotation
       End Site
       {
        OFFSET 0.000000 16.896195 0.008993
       }
      }
     }
     JOINT RightCollar
     {
      OFFSET -2.923010 9.499495 0.000000
      CHANNELS 3 Yrotation Xrotation Zrotation
      JOINT RightShoulder
      {
       OFFSET -13.795216 0.000000 0.000000
       CHANNELS 3 Yrotation Xrotation Zrotation
       JOINT RightElbow
       {
        OFFSET -30.272209 0.000000 0.000000
        CHANNELS 3 Yrotation Xrotation Zrotation
        JOINT RightWrist
        {
         OFFSET -24.478199 0.000000 0.000000
         CHANNELS 3 Yrotation Xrotation Zrotation
         End Site
         {
          OFFSET -18.090752 0.000000 0.000000
         }
        }
       }
      }
     }
     JOINT LeftCollar
     {
      OFFSET 2.923010 9.499495 0.000000
      CHANNELS 3 Yrotation Xrotation Zrotation
      JOINT LeftShoulder
      {
       OFFSET 13.795216 0.000000 0.000000
       CHANNELS 3 Yrotation Xrotation Zrotation
       JOINT LeftElbow
       {
        OFFSET 30.272209 0.000000 0.000000
        CHANNELS 3 Yrotation Xrotation Zrotation
        JOINT LeftWrist
        {
         OFFSET 24.478199 0.000000 0.000000
         CHANNELS 3 Yrotation Xrotation Zrotation
         End Site
         {
          OFFSET 18.090752 0.000000 0.000000
         }
        }
       }
      }
     }
    }
   }
  }
 }
 JOINT RightHip
 {
  OFFSET -7.826875 0.019532 0.001973
  CHANNELS 3 Yrotation Xrotation Zrotation
  JOINT RightKnee
  {
   OFFSET 0.000000 -40.546152 -0.001885
   CHANNELS 3 Yrotation Xrotation Zrotation
   JOINT RightAnkle
   {
    OFFSET 0.000000 -39.417092 -0.003189
    CHANNELS 3 Yrotation Xrotation Zrotation
    JOINT RightToe
    {
     OFFSET 0.000000 -7.579396 17.243563
     CHANNELS 3 Yrotation Xrotation Zrotation
     End Site
     {
      OFFSET 0.000000 -1.500329 6.694466
     }
    }
   }
  }
 }
 JOINT LeftHip
 {
  OFFSET 7.826875 0.019532 0.001973
  CHANNELS 3 Yrotation Xrotation Zrotation
  JOINT LeftKnee
  {
   OFFSET 0.000000 -40.546152 -0.001885
   CHANNELS 3 Yrotation Xrotation Zrotation
   JOINT LeftAnkle
   {
    OFFSET 0.000000 -39.417092 -0.003189
    CHANNELS 3 Yrotation Xrotation Zrotation
    JOINT LeftToe
    {
     OFFSET 0.000000 -7.579396 17.243563
     CHANNELS 3 Yrotation Xrotation Zrotation
     End Site
     {
      OFFSET 0.000000 -1.500329 6.694466
     }
    }
   }
  }
 }
}
MOTION
Frames: 7
Frame Time: 0.008333
0.000000 87.345680 0.000000 0.000000 -5.767889 0.000000 0.000000 11.653876 0.000000 0.000000 -5.885988 0.000000 0.000000 -0.000000 0.000000 0.000000 -0.000000 0.000000 0.000000 12.528808 0.000000 0.000000 0.711711 0.000000 0.000000 -0.000000 0.000000 0.000000 -0.000000 0.000000 2.309063 -0.000000 0.000000 -2.309063 -0.000000 -0.000000 0.000000 -0.000000 0.000000 0.000000 0.000000 0.000000 -2.309063 0.000000 0.000000 2.309063 -0.000000 0.000000 0.000000 8.520374 0.000000 0.000000 1.905768 0.000000 -0.000000 -4.658254 0.000000 0.000000 -0.000000 0.000000 0.000000 8.520374 0.000000 0.000000 1.905768 0.000000 -0.000000 -4.658254 0.000000 0.000000 -0.000000 0.000000
-2.918725 89.162465 16.351507 -44.584200 -9.612858 -0.572265 0.901325 4.282091 0.748726 0.519637 2.440260 0.440754 0.652630 3.049687 0.554529 0.519637 2.440260 0.440754 -1.911770 18.085626 -0.935506 -1.804000 -6.670569 -0.552333 1.134933 1.411951 -1.504468 -13.465809 -1.020192 87.532402 22.773169 6.531530 8.025585 19.610910 -8.260697 -3.839402 -2.859585 -0.281435 0.184968 6.723846 -2.724501 -89.908666 1.307444 -8.279256 -2.066181 -2.938599 -7.124677 2.032511 -17.655159 10.206643 -3.514922 0.787834 3.898084 -0.116860 -5.204655 -4.836513 1.442351 0.007716 -0.030445 -0.015237 5.739060 11.470404 1.851986 -13.820057 0.878145 0.945230 -11.525941 -3.146844 -0.911507 0.000145 0.104015 -0.079337
-2.927229 89.160243 16.343535 -44.565542 -9.628525 -0.563316 0.904115 4.278016 0.748055 0.522278 2.438277 0.437712 0.655909 3.047210 0.550740 0.522279 2.438277 0.437712 -1.887594 18.104505 -0.957803 -1.773498 -6.650170 -0.581378 1.167592 1.409025 -1.447669 -13.439274 -1.077253 87.338875 22.766466 6.515277 8.190965 19.615189 -8.297789 -3.855088 -2.876778 -0.234043 0.176319 6.644524 -2.855281 -89.880497 1.260167 -8.317283 -2.394561 -2.877250 -7.178243 2.067126 -17.709822 10.216830 -3.537979 0.785996 3.911413 -0.103843 -5.172659 -4.853069 1.434066 0.006608 -0.028001 -0.015572 5.742624 11.409688 1.849170 -13.837255 1.021957 0.931472 -11.570150 -3.225149 -0.886600 0.001397 0.096340 -0.076407
-2.937761 89.157492 16.334782 -44.547911 -9.645277 -0.552672 0.905398 4.274995 0.746282 0.523448 2.436316 0.434469 0.657348 3.044761 0.546690 0.523448 2.436316 0.434469 -1.863250 18.120801 -0.985492 -1.741582 -6.632565 -0.616147 1.201355 1.408404 -1.382770 -13.429410 -1.154838 87.112718 22.764440 6.522771 8.404323 19.607951 -8.348979 -3.855947 -2.892348 -0.189582 0.165959 6.586068 -2.995708 -89.816691 1.209088 -8.234549 -2.761088 -2.783719 -7.216424 2.078743 -17.761789 10.232203 -3.560757 0.790818 3.918298 -0.090556 -5.152213 -4.868950 1.424246 0.004496 -0.023895 -0.015949 5.748852 11.346286 1.849945 -13.858009 1.171633 0.913071 -11.622032 -3.306724 -0.861532 0.001455 0.089107 -0.073849
-2.950700 89.154380 16.325790 -44.530379 -9.664918 -0.544601 0.903844 4.272570 0.746785 0.522989 2.435166 0.431905 0.656755 3.043328 0.543480 0.522989 2.435166 0.431905 -1.840474 18.135155 -1.020551 -1.709648 -6.616994 -0.658340 1.240475 1.410956 -1.315328 -13.439229 -1.250015 86.857024 22.774140 6.556615 8.667929 19.583545 -8.413819 -3.832398 -2.905398 -0.155877 0.156490 6.553528 -3.139785 -89.716169 1.135528 -7.986101 -3.151614 -2.657208 -7.219835 2.056025 -17.805967 10.257418 -3.579204 0.799310 3.916548 -0.078903 -5.140834 -4.882063 1.415210 0.001571 -0.019491 -0.016783 5.750718 11.290089 1.842472 -13.880328 1.325653 0.891790 -11.601704 -3.391196 -0.828420 0.006511 0.083019 -0.068979
-2.965499 89.151086 16.317584 -44.513740 -9.688481 -0.538058 0.899465 4.269490 0.749301 0.520960 2.434534 0.430509 0.654208 3.042543 0.541719 0.520960 2.434534 0.430509 -1.820591 18.150756 -1.064581 -1.678767 -6.599898 -0.709361 1.285123 1.419294 -1.251200 -13.462619 -1.359059 86.569950 22.799900 6.605531 8.985734 19.541867 -8.483482 -3.778144 -2.920413 -0.132758 0.146129 6.535765 -3.279181 -89.581165 1.015489 -7.562251 -3.552424 -2.511186 -7.176919 2.001545 -17.841215 10.293576 -3.596149 0.806734 3.905160 -0.070010 -5.127968 -4.891817 1.408493 -0.001529 -0.014920 -0.017661 5.742141 11.242142 1.827024 -13.900144 1.481488 0.871223 -11.532369 -3.476603 -0.791137 0.014626 0.077158 -0.063058
-2.980985 89.147749 16.311041 -44.498974 -9.714801 -0.530037 0.892838 4.266514 0.751785 0.517331 2.434164 0.430676 0.649671 3.042084 0.541904 0.517331 2.434164 0.430676 -1.803687 18.169073 -1.119042 -1.648707 -6.579627 -0.770745 1.332422 1.429373 -1.196209 -13.489695 -1.477659 86.251043 22.846244 6.658924 9.356093 19.484213 -8.550633 -3.693295 -2.939470 -0.122580 0.131277 6.498099 -3.401748 -89.416631 0.827529 -6.998733 -3.949714 -2.371458 -7.092082 1.923436 -17.869962 10.338271 -3.615127 0.813771 3.883283 -0.061979 -5.117077 -4.898037 1.402259 -0.004877 -0.009512 -0.017946 5.723166 11.195017 1.813055 -13.914580 1.638426 0.854552 -11.497114 -3.561486 -0.760188 0.019458 0.070409 -0.058373
